<svg xmlns="http://www.w3.org/2000/svg" xmlns:xlink="http://www.w3.org/1999/xlink"><symbol id="icon-star" viewBox="0 0 12 11"><path d="M11.448 4.157a.609.609 0 00-.525-.42l-3.313-.3L6.3.37a.61.61 0 00-1.122 0l-1.31 3.066-3.313.301a.61.61 0 00-.347 1.068L2.713 7l-.739 3.253a.61.61 0 00.907.659L5.74 9.205l2.857 1.708a.61.61 0 00.908-.659L8.765 7l2.505-2.196a.61.61 0 00.178-.648z"/></symbol><symbol id="icon-cart" viewBox="0 0 18 20"><path d="M1.66 6.273a.647.647 0 00-.467.2.697.697 0 00-.193.483v9.227c0 1.292 1.061 2.393 2.307 2.393H14.51c1.246 0 2.307-1.047 2.307-2.34v-9.28a.697.697 0 00-.193-.483.647.647 0 00-.466-.2H1.66zm3.734 0V4.955A3.955 3.955 0 019.348 1v0a3.955 3.955 0 013.955 3.955v1.318" stroke="#fff" stroke-width="1.5" stroke-linecap="round" stroke-linejoin="round"/></symbol><symbol id="icon-back" viewBox="0 0 14 10"><path d="M14 5H2m0 0l4.143-4M2 5l4.143 4" stroke="#000" stroke-width="1.5"/></symbol><symbol id="icon-dropdown" viewBox="0 0 19 11"><path d="M1 1l8.4 8 8.4-8" stroke="#000" stroke-width="2"/></symbol></svg>